<svg width="1288" height="135" viewBox="0 0 1288 135" fill="none" xmlns="http://www.w3.org/2000/svg">
<path d="M1174.78 175C1172.95 175 1171.36 174.333 1170.03 173C1168.7 171.667 1168.03 170.083 1168.03 168.25V119L1111.78 7.75C1111.61 7.41667 1111.45 7.08334 1111.28 6.75C1111.28 6.25 1111.28 5.83333 1111.28 5.5C1111.28 4 1111.78 2.75 1112.78 1.75001C1113.95 0.583336 1115.28 0 1116.78 0H1163.78C1167.11 0 1169.61 0.833331 1171.28 2.5C1172.95 4.16667 1173.95 5.41668 1174.28 6.25001L1199.28 56.5L1224.28 6.25001C1224.61 5.41668 1225.61 4.16667 1227.28 2.5C1228.95 0.833331 1231.45 0 1234.78 0H1281.78C1283.28 0 1284.53 0.583336 1285.53 1.75001C1286.7 2.75 1287.28 4 1287.28 5.5C1287.28 5.83333 1287.2 6.25 1287.03 6.75C1287.03 7.08334 1286.95 7.41667 1286.78 7.75L1230.53 119V168.25C1230.53 170.083 1229.86 171.667 1228.53 173C1227.2 174.333 1225.61 175 1223.78 175H1174.78Z" fill="white"/>
<path d="M998.461 175C996.628 175 995.044 174.333 993.711 173C992.378 171.667 991.711 170.083 991.711 168.25V6.75C991.711 4.91667 992.378 3.33334 993.711 2C995.044 0.666668 996.628 0 998.461 0H1048.46C1050.29 0 1051.88 0.666668 1053.21 2C1054.54 3.33334 1055.21 4.91667 1055.21 6.75V123.75H1124.46C1126.29 123.75 1127.88 124.417 1129.21 125.75C1130.54 127.083 1131.21 128.667 1131.21 130.5V168.25C1131.21 170.083 1130.54 171.667 1129.21 173C1127.88 174.333 1126.29 175 1124.46 175H998.461Z" fill="white"/>
<path d="M906.42 175C904.587 175 903.003 174.333 901.67 173C900.337 171.667 899.67 170.083 899.67 168.25V6.75C899.67 4.91667 900.337 3.33334 901.67 2C903.003 0.666668 904.587 0 906.42 0H957.42C959.253 0 960.837 0.666668 962.17 2C963.503 3.33334 964.17 4.91667 964.17 6.75V168.25C964.17 170.083 963.503 171.667 962.17 173C960.837 174.333 959.253 175 957.42 175H906.42Z" fill="white"/>
<path d="M692.309 175C690.475 175 688.892 174.333 687.559 173C686.225 171.667 685.559 170.083 685.559 168.25V6.75C685.559 4.91667 686.225 3.33334 687.559 2C688.892 0.666668 690.475 0 692.309 0H731.809C735.142 0 737.642 0.916668 739.309 2.75001C740.975 4.58334 742.059 5.91667 742.559 6.75L778.809 66.75L815.059 6.75C815.559 5.91667 816.642 4.58334 818.309 2.75001C819.975 0.916668 822.475 0 825.809 0H865.309C867.142 0 868.725 0.666668 870.059 2C871.392 3.33334 872.059 4.91667 872.059 6.75V168.25C872.059 170.083 871.392 171.667 870.059 173C868.725 174.333 867.142 175 865.309 175H820.059C818.225 175 816.642 174.333 815.309 173C813.975 171.667 813.309 170.083 813.309 168.25V99.75L796.809 126.75C795.975 128.083 794.809 129.5 793.309 131C791.975 132.333 790.059 133 787.559 133H770.059C767.559 133 765.559 132.333 764.059 131C762.725 129.5 761.642 128.083 760.809 126.75L744.309 99.75V168.25C744.309 170.083 743.642 171.667 742.309 173C740.975 174.333 739.392 175 737.559 175H692.309Z" fill="white"/>
<path d="M488.588 175C487.088 175 485.755 174.5 484.588 173.5C483.588 172.333 483.088 171 483.088 169.5C483.088 168.833 483.171 168.25 483.338 167.75L539.088 8.25C539.588 6.41667 540.755 4.58334 542.588 2.75001C544.421 0.916668 547.005 0 550.338 0H604.588C607.921 0 610.505 0.916668 612.338 2.75001C614.171 4.58334 615.338 6.41667 615.838 8.25L671.588 167.75C671.755 168.25 671.838 168.833 671.838 169.5C671.838 171 671.255 172.333 670.088 173.5C669.088 174.5 667.838 175 666.338 175H620.088C616.921 175 614.588 174.333 613.088 173C611.755 171.5 610.838 170.083 610.338 168.75L604.338 152.25H550.588L544.588 168.75C544.088 170.083 543.171 171.5 541.838 173C540.505 174.333 538.171 175 534.838 175H488.588ZM563.338 103.5H591.588L577.338 57L563.338 103.5Z" fill="white"/>
<path d="M351 175C349.167 175 347.583 174.333 346.25 173C344.917 171.667 344.25 170.083 344.25 168.25V6.75C344.25 4.91667 344.917 3.33334 346.25 2C347.583 0.666668 349.167 0 351 0H477C478.833 0 480.417 0.666668 481.75 2C483.083 3.33334 483.75 4.91667 483.75 6.75V44.75C483.75 46.5833 483.083 48.1667 481.75 49.5C480.417 50.8333 478.833 51.5 477 51.5H405.5V70H472C473.833 70 475.417 70.6667 476.75 72C478.083 73.3334 478.75 74.9167 478.75 76.75V114.5C478.75 116.333 478.083 117.917 476.75 119.25C475.417 120.583 473.833 121.25 472 121.25H405.5V168.25C405.5 170.083 404.833 171.667 403.5 173C402.167 174.333 400.583 175 398.75 175H351Z" fill="white"/>
<path d="M81.25 177.5C66.25 177.5 53.5833 175.75 43.25 172.25C32.9167 168.75 24.5833 164.333 18.25 159C12.0833 153.5 7.5 147.833 4.5 142C1.66667 136 0.166666 130.5 0 125.5C0 124 0.5 122.75 1.5 121.75C2.66667 120.583 4 120 5.5 120H55.75C58.0833 120 59.75 120.417 60.75 121.25C61.9167 121.917 63.0833 122.833 64.25 124C65.25 124.833 66.4167 125.667 67.75 126.5C69.0833 127.333 70.8333 128 73 128.5C75.1667 128.833 78 129 81.5 129C87.3333 129 91.5 127.75 94 125.25C96.6667 122.583 98 119.417 98 115.75C98 111.917 96.5833 109.167 93.75 107.5C91.0833 105.667 87 104.75 81.5 104.75H50.25C48.4167 104.75 46.8333 104.083 45.5 102.75C44.1667 101.417 43.5 99.8333 43.5 98V77.75C43.5 75.25 44 73.1667 45 71.5C46.1667 69.6667 47.3333 68.4167 48.5 67.75L83.25 48.75H17.5C15.6667 48.75 14.0833 48.0833 12.75 46.75C11.4167 45.4167 10.75 43.8333 10.75 42V6.75C10.75 4.91667 11.4167 3.33334 12.75 2C14.0833 0.666668 15.6667 0 17.5 0H145.5C147.333 0 148.917 0.666668 150.25 2C151.583 3.33334 152.25 4.91667 152.25 6.75V38.5C152.25 40.8333 151.75 42.9167 150.75 44.75C149.75 46.4167 148.583 47.6667 147.25 48.5L118 68V68.75C126.333 70.75 133.917 73.75 140.75 77.75C147.583 81.75 153 87.25 157 94.25C161 101.083 163 109.75 163 120.25C163 131.75 159.417 141.833 152.25 150.5C145.25 159 135.583 165.667 123.25 170.5C111.083 175.167 97.0833 177.5 81.25 177.5Z" fill="white"/>
<path d="M226 0C241.667 0 255.667 2.66667 268 8C280.333 13.1667 290.167 20.8333 297.5 31C305 41.1667 309 53.75 309.5 68.75C309.833 75.9167 310 82.25 310 87.75C310 93.0833 309.833 99.1667 309.5 106C308.833 121.667 305 134.667 298 145C291 155.167 281.417 162.75 269.25 167.75C257.25 172.583 243.25 175 227.25 175H154C152.167 175 150.583 174.333 149.25 173C148.161 171.911 147.517 170.656 147.317 169.234C158.197 164.526 166.841 158.282 173.25 150.5C180.417 141.833 184 131.75 184 120.25C184 109.75 182 101.083 178 94.25C174 87.25 168.583 81.75 161.75 77.75C157.243 75.1119 152.409 72.9117 147.25 71.1436V62.5L168.25 48.5C169.583 47.6667 170.75 46.4167 171.75 44.75C172.75 42.9167 173.25 40.8333 173.25 38.5V6.75C173.25 4.91667 172.583 3.33334 171.25 2C169.917 0.666665 168.333 0 166.5 0H226ZM209.75 126.25H226C229.667 126.25 232.917 125.583 235.75 124.25C238.75 122.75 241.167 120.5 243 117.5C244.833 114.5 245.833 110.667 246 106C246.333 101.167 246.5 96.8333 246.5 93C246.667 89.1667 246.667 85.3333 246.5 81.5C246.5 77.5 246.333 73.25 246 68.75C245.667 61.75 243.417 56.6667 239.25 53.5C235.25 50.3333 230.417 48.75 224.75 48.75H209.75V126.25Z" fill="white"/>
</svg>
